{
	"asset":{
		"generator":"Khronos glTF Blender I/O v4.5.47",
		"version":"2.0"
	},
	"extensionsUsed":[
		"KHR_materials_emissive_strength"
	],
	"scene":0,
	"scenes":[
		{
			"name":"Scene",
			"nodes":[
				4,
				5
			]
		}
	],
	"nodes":[
		{
			"mesh":0,
			"name":"Cube008",
			"translation":[
				0.0032104216516017914,
				0.22064326703548431,
				0.1727985143661499
			]
		},
		{
			"mesh":1,
			"name":"Cube009",
			"translation":[
				-0.20970481634140015,
				0.5102142095565796,
				-0.012195070274174213
			]
		},
		{
			"mesh":2,
			"name":"Curve003",
			"translation":[
				0.5355008244514465,
				0.3105938136577606,
				-1.5829081535339355
			]
		},
		{
			"mesh":3,
			"name":"Text",
			"rotation":[
				0.500105619430542,
				0.499894380569458,
				-0.4998944103717804,
				0.5001056790351868
			],
			"scale":[
				0.07465794682502747,
				1,
				0.07465794682502747
			],
			"translation":[
				0.5361831188201904,
				-0.2031669318675995,
				1.9635287523269653
			]
		},
		{
			"children":[
				0,
				1,
				2,
				3
			],
			"name":"conditioner.glb",
			"rotation":[
				0,
				-0.7069573402404785,
				0,
				0.7072561979293823
			]
		},
		{
			"mesh":4,
			"name":"Curve007_1"
		}
	],
	"materials":[
		{
			"doubleSided":true,
			"name":"bronze",
			"pbrMetallicRoughness":{
				"baseColorFactor":[
					0.800133466720581,
					0.3017142415046692,
					0.22163008153438568,
					1
				],
				"roughnessFactor":0.06994819641113281
			}
		},
		{
			"doubleSided":true,
			"name":"conditioner black",
			"pbrMetallicRoughness":{
				"baseColorFactor":[
					0.08848506212234497,
					0.08848506212234497,
					0.08848506212234497,
					1
				],
				"metallicFactor":0.7599999904632568,
				"roughnessFactor":0.4099999964237213
			}
		},
		{
			"doubleSided":true,
			"emissiveFactor":[
				1,
				1,
				1
			],
			"extensions":{
				"KHR_materials_emissive_strength":{
					"emissiveStrength":3
				}
			},
			"name":"emission",
			"pbrMetallicRoughness":{
				"baseColorFactor":[
					0.800000011920929,
					0.800000011920929,
					0.800000011920929,
					1
				],
				"metallicFactor":0,
				"roughnessFactor":0.5
			}
		},
		{
			"doubleSided":true,
			"name":"Material.001",
			"pbrMetallicRoughness":{
				"baseColorFactor":[
					0.800000011920929,
					0.800000011920929,
					0.800000011920929,
					1
				],
				"metallicFactor":0,
				"roughnessFactor":0.5
			}
		},
		{
			"alphaMode":"BLEND",
			"doubleSided":true,
			"name":"white",
			"pbrMetallicRoughness":{
				"baseColorFactor":[
					0.800000011920929,
					0.800000011920929,
					0.800000011920929,
					0.32642489671707153
				],
				"metallicFactor":0,
				"roughnessFactor":0.5
			}
		}
	],
	"meshes":[
		{
			"name":"Mesh_1",
			"primitives":[
				{
					"attributes":{
						"POSITION":0,
						"NORMAL":1,
						"TEXCOORD_0":2
					},
					"indices":3,
					"material":0
				}
			]
		},
		{
			"name":"Mesh_0",
			"primitives":[
				{
					"attributes":{
						"POSITION":4,
						"NORMAL":5,
						"TEXCOORD_0":6
					},
					"indices":7,
					"material":1
				}
			]
		},
		{
			"name":"Mesh_7",
			"primitives":[
				{
					"attributes":{
						"POSITION":8,
						"NORMAL":9,
						"TEXCOORD_0":10
					},
					"indices":11,
					"material":2
				}
			]
		},
		{
			"name":"Text.001",
			"primitives":[
				{
					"attributes":{
						"POSITION":12,
						"NORMAL":13,
						"TEXCOORD_0":14
					},
					"indices":15,
					"material":3
				}
			]
		},
		{
			"name":"Mesh_4",
			"primitives":[
				{
					"attributes":{
						"POSITION":16,
						"NORMAL":17,
						"TEXCOORD_0":18
					},
					"indices":19,
					"material":4
				}
			]
		}
	],
	"accessors":[
		{
			"bufferView":0,
			"componentType":5126,
			"count":3332,
			"max":[
				0.37087541818618774,
				0.438846230506897,
				1.765715479850769
			],
			"min":[
				-0.37087541818618774,
				-0.4388406276702881,
				-1.765712857246399
			],
			"type":"VEC3"
		},
		{
			"bufferView":1,
			"componentType":5126,
			"count":3332,
			"type":"VEC3"
		},
		{
			"bufferView":2,
			"componentType":5126,
			"count":3332,
			"type":"VEC2"
		},
		{
			"bufferView":3,
			"componentType":5123,
			"count":8568,
			"type":"SCALAR"
		},
		{
			"bufferView":4,
			"componentType":5126,
			"count":23334,
			"max":[
				0.7489779591560364,
				0.31686556339263916,
				2.1740059852600098
			],
			"min":[
				-0.3008604645729065,
				-1.1861741542816162,
				-2.1426334381103516
			],
			"type":"VEC3"
		},
		{
			"bufferView":5,
			"componentType":5126,
			"count":23334,
			"type":"VEC3"
		},
		{
			"bufferView":6,
			"componentType":5126,
			"count":23334,
			"type":"VEC2"
		},
		{
			"bufferView":7,
			"componentType":5123,
			"count":23334,
			"type":"SCALAR"
		},
		{
			"bufferView":8,
			"componentType":5126,
			"count":838,
			"max":[
				0.0009544491767883301,
				0.04208230972290039,
				0.22900378704071045
			],
			"min":[
				-0.000957787036895752,
				-0.11659686267375946,
				-0.10495424270629883
			],
			"type":"VEC3"
		},
		{
			"bufferView":9,
			"componentType":5126,
			"count":838,
			"type":"VEC3"
		},
		{
			"bufferView":10,
			"componentType":5126,
			"count":838,
			"type":"VEC2"
		},
		{
			"bufferView":11,
			"componentType":5123,
			"count":1488,
			"type":"SCALAR"
		},
		{
			"bufferView":12,
			"componentType":5126,
			"count":991,
			"max":[
				4.230000019073486,
				0,
				0.23000000417232513
			],
			"min":[
				0.07600000500679016,
				0,
				-0.6910000443458557
			],
			"type":"VEC3"
		},
		{
			"bufferView":13,
			"componentType":5126,
			"count":991,
			"type":"VEC3"
		},
		{
			"bufferView":14,
			"componentType":5126,
			"count":991,
			"type":"VEC2"
		},
		{
			"bufferView":15,
			"componentType":5123,
			"count":2949,
			"type":"SCALAR"
		},
		{
			"bufferView":16,
			"componentType":5126,
			"count":2768,
			"max":[
				0.0007053613662719727,
				0.013327300548553467,
				0.10866153240203857
			],
			"min":[
				-0.0006985068321228027,
				-0.01385258138179779,
				-0.1268024444580078
			],
			"type":"VEC3"
		},
		{
			"bufferView":17,
			"componentType":5126,
			"count":2768,
			"type":"VEC3"
		},
		{
			"bufferView":18,
			"componentType":5126,
			"count":2768,
			"type":"VEC2"
		},
		{
			"bufferView":19,
			"componentType":5123,
			"count":5352,
			"type":"SCALAR"
		}
	],
	"bufferViews":[
		{
			"buffer":0,
			"byteLength":39984,
			"byteOffset":0,
			"target":34962
		},
		{
			"buffer":0,
			"byteLength":39984,
			"byteOffset":39984,
			"target":34962
		},
		{
			"buffer":0,
			"byteLength":26656,
			"byteOffset":79968,
			"target":34962
		},
		{
			"buffer":0,
			"byteLength":17136,
			"byteOffset":106624,
			"target":34963
		},
		{
			"buffer":0,
			"byteLength":280008,
			"byteOffset":123760,
			"target":34962
		},
		{
			"buffer":0,
			"byteLength":280008,
			"byteOffset":403768,
			"target":34962
		},
		{
			"buffer":0,
			"byteLength":186672,
			"byteOffset":683776,
			"target":34962
		},
		{
			"buffer":0,
			"byteLength":46668,
			"byteOffset":870448,
			"target":34963
		},
		{
			"buffer":0,
			"byteLength":10056,
			"byteOffset":917116,
			"target":34962
		},
		{
			"buffer":0,
			"byteLength":10056,
			"byteOffset":927172,
			"target":34962
		},
		{
			"buffer":0,
			"byteLength":6704,
			"byteOffset":937228,
			"target":34962
		},
		{
			"buffer":0,
			"byteLength":2976,
			"byteOffset":943932,
			"target":34963
		},
		{
			"buffer":0,
			"byteLength":11892,
			"byteOffset":946908,
			"target":34962
		},
		{
			"buffer":0,
			"byteLength":11892,
			"byteOffset":958800,
			"target":34962
		},
		{
			"buffer":0,
			"byteLength":7928,
			"byteOffset":970692,
			"target":34962
		},
		{
			"buffer":0,
			"byteLength":5898,
			"byteOffset":978620,
			"target":34963
		},
		{
			"buffer":0,
			"byteLength":33216,
			"byteOffset":984520,
			"target":34962
		},
		{
			"buffer":0,
			"byteLength":33216,
			"byteOffset":1017736,
			"target":34962
		},
		{
			"buffer":0,
			"byteLength":22144,
			"byteOffset":1050952,
			"target":34962
		},
		{
			"buffer":0,
			"byteLength":10704,
			"byteOffset":1073096,
			"target":34963
		}
	],
	"buffers":[
		{
			"byteLength":1083800,
			"uri":"aircond030.bin"
		}
	]
}
