{
	"asset":{
		"generator":"Khronos glTF Blender I/O v4.5.47",
		"version":"2.0"
	},
	"extensionsUsed":[
		"KHR_materials_emissive_strength"
	],
	"scene":0,
	"scenes":[
		{
			"name":"Scene",
			"nodes":[
				9
			]
		}
	],
	"nodes":[
		{
			"mesh":0,
			"name":"Cube008",
			"translation":[
				0.0032104216516017914,
				0.22064326703548431,
				0.1727985143661499
			]
		},
		{
			"mesh":1,
			"name":"Cube009",
			"translation":[
				-0.20970481634140015,
				0.5102142095565796,
				-0.012195070274174213
			]
		},
		{
			"mesh":2,
			"name":"Curve",
			"translation":[
				0.531096339225769,
				-0.1646246314048767,
				1.7441014051437378
			]
		},
		{
			"mesh":3,
			"name":"Curve001",
			"translation":[
				0.5380999445915222,
				-0.18153835833072662,
				-1.7308753728866577
			]
		},
		{
			"mesh":4,
			"name":"Curve007"
		},
		{
			"mesh":5,
			"name":"Curve007_1"
		},
		{
			"children":[
				4,
				5
			],
			"name":"Curve002",
			"translation":[
				0.5381179451942444,
				-0.1807270646095276,
				-1.3570847511291504
			]
		},
		{
			"mesh":6,
			"name":"Curve003",
			"translation":[
				0.5355008244514465,
				0.3105938136577606,
				-1.5829081535339355
			]
		},
		{
			"mesh":7,
			"name":"Curve004",
			"translation":[
				0.535966157913208,
				0.22794319689273834,
				-1.6430027484893799
			]
		},
		{
			"children":[
				0,
				1,
				2,
				3,
				6,
				7,
				8
			],
			"name":"conditioner.glb",
			"rotation":[
				0,
				-0.7069573402404785,
				0,
				0.7072561979293823
			]
		}
	],
	"materials":[
		{
			"doubleSided":true,
			"name":"bronze",
			"pbrMetallicRoughness":{
				"baseColorFactor":[
					0.800133466720581,
					0.3017142415046692,
					0.22163008153438568,
					1
				],
				"roughnessFactor":0.06994819641113281
			}
		},
		{
			"doubleSided":true,
			"name":"conditioner black",
			"pbrMetallicRoughness":{
				"baseColorFactor":[
					0.08848506212234497,
					0.08848506212234497,
					0.08848506212234497,
					1
				],
				"metallicFactor":0.7599999904632568,
				"roughnessFactor":0.4099999964237213
			}
		},
		{
			"alphaMode":"BLEND",
			"doubleSided":true,
			"name":"white",
			"pbrMetallicRoughness":{
				"baseColorFactor":[
					0.800000011920929,
					0.800000011920929,
					0.800000011920929,
					0.32642489671707153
				],
				"metallicFactor":0,
				"roughnessFactor":0.5
			}
		},
		{
			"doubleSided":true,
			"name":"green",
			"pbrMetallicRoughness":{
				"baseColorFactor":[
					0.005604939069598913,
					0.3915729820728302,
					0.1412634253501892,
					1
				],
				"metallicFactor":0,
				"roughnessFactor":0.10103628039360046
			}
		},
		{
			"doubleSided":true,
			"emissiveFactor":[
				1,
				1,
				1
			],
			"extensions":{
				"KHR_materials_emissive_strength":{
					"emissiveStrength":3
				}
			},
			"name":"emission",
			"pbrMetallicRoughness":{
				"baseColorFactor":[
					0.800000011920929,
					0.800000011920929,
					0.800000011920929,
					1
				],
				"metallicFactor":0,
				"roughnessFactor":0.5
			}
		}
	],
	"meshes":[
		{
			"name":"Mesh_1",
			"primitives":[
				{
					"attributes":{
						"POSITION":0,
						"NORMAL":1,
						"TEXCOORD_0":2
					},
					"indices":3,
					"material":0
				}
			]
		},
		{
			"name":"Mesh_0",
			"primitives":[
				{
					"attributes":{
						"POSITION":4,
						"NORMAL":5,
						"TEXCOORD_0":6
					},
					"indices":7,
					"material":1
				}
			]
		},
		{
			"name":"Mesh_2",
			"primitives":[
				{
					"attributes":{
						"POSITION":8,
						"NORMAL":9,
						"TEXCOORD_0":10
					},
					"indices":11,
					"material":2
				}
			]
		},
		{
			"name":"Mesh_6",
			"primitives":[
				{
					"attributes":{
						"POSITION":12,
						"NORMAL":13,
						"TEXCOORD_0":14
					},
					"indices":15,
					"material":2
				}
			]
		},
		{
			"name":"Mesh_3",
			"primitives":[
				{
					"attributes":{
						"POSITION":16,
						"NORMAL":17,
						"TEXCOORD_0":18
					},
					"indices":19,
					"material":3
				}
			]
		},
		{
			"name":"Mesh_4",
			"primitives":[
				{
					"attributes":{
						"POSITION":20,
						"NORMAL":21,
						"TEXCOORD_0":22
					},
					"indices":23,
					"material":2
				}
			]
		},
		{
			"name":"Mesh_7",
			"primitives":[
				{
					"attributes":{
						"POSITION":24,
						"NORMAL":25,
						"TEXCOORD_0":26
					},
					"indices":27,
					"material":4
				}
			]
		},
		{
			"name":"Mesh_5",
			"primitives":[
				{
					"attributes":{
						"POSITION":28,
						"NORMAL":29,
						"TEXCOORD_0":30
					},
					"indices":31,
					"material":3
				}
			]
		}
	],
	"accessors":[
		{
			"bufferView":0,
			"componentType":5126,
			"count":3332,
			"max":[
				0.37087541818618774,
				0.438846230506897,
				1.765715479850769
			],
			"min":[
				-0.37087541818618774,
				-0.4388406276702881,
				-1.765712857246399
			],
			"type":"VEC3"
		},
		{
			"bufferView":1,
			"componentType":5126,
			"count":3332,
			"type":"VEC3"
		},
		{
			"bufferView":2,
			"componentType":5126,
			"count":3332,
			"type":"VEC2"
		},
		{
			"bufferView":3,
			"componentType":5123,
			"count":8568,
			"type":"SCALAR"
		},
		{
			"bufferView":4,
			"componentType":5126,
			"count":23334,
			"max":[
				0.7489779591560364,
				0.31686556339263916,
				2.1740059852600098
			],
			"min":[
				-0.3008604645729065,
				-1.1861741542816162,
				-2.1426334381103516
			],
			"type":"VEC3"
		},
		{
			"bufferView":5,
			"componentType":5126,
			"count":23334,
			"type":"VEC3"
		},
		{
			"bufferView":6,
			"componentType":5126,
			"count":23334,
			"type":"VEC2"
		},
		{
			"bufferView":7,
			"componentType":5123,
			"count":23334,
			"type":"SCALAR"
		},
		{
			"bufferView":8,
			"componentType":5126,
			"count":9576,
			"max":[
				0.0018561482429504395,
				0.05983085185289383,
				0.15213751792907715
			],
			"min":[
				-0.0018672943115234375,
				-0.03857061266899109,
				-0.0930478572845459
			],
			"type":"VEC3"
		},
		{
			"bufferView":9,
			"componentType":5126,
			"count":9576,
			"type":"VEC3"
		},
		{
			"bufferView":10,
			"componentType":5126,
			"count":9576,
			"type":"VEC2"
		},
		{
			"bufferView":11,
			"componentType":5123,
			"count":9576,
			"type":"SCALAR"
		},
		{
			"bufferView":12,
			"componentType":5126,
			"count":5096,
			"max":[
				0.0006941556930541992,
				0.032547757029533386,
				0.17591559886932373
			],
			"min":[
				-0.0007097721099853516,
				-0.03190968930721283,
				-0.11129891872406006
			],
			"type":"VEC3"
		},
		{
			"bufferView":13,
			"componentType":5126,
			"count":5096,
			"type":"VEC3"
		},
		{
			"bufferView":14,
			"componentType":5126,
			"count":5096,
			"type":"VEC2"
		},
		{
			"bufferView":15,
			"componentType":5123,
			"count":9804,
			"type":"SCALAR"
		},
		{
			"bufferView":16,
			"componentType":5126,
			"count":87,
			"max":[
				0.000705420970916748,
				0.018963709473609924,
				0.1847020387649536
			],
			"min":[
				-0.0006984472274780273,
				-0.03290341794490814,
				0.12614965438842773
			],
			"type":"VEC3"
		},
		{
			"bufferView":17,
			"componentType":5126,
			"count":87,
			"type":"VEC3"
		},
		{
			"bufferView":18,
			"componentType":5126,
			"count":87,
			"type":"VEC2"
		},
		{
			"bufferView":19,
			"componentType":5123,
			"count":144,
			"type":"SCALAR"
		},
		{
			"bufferView":20,
			"componentType":5126,
			"count":2768,
			"max":[
				0.0007053613662719727,
				0.013327300548553467,
				0.10866153240203857
			],
			"min":[
				-0.0006985068321228027,
				-0.01385258138179779,
				-0.1268024444580078
			],
			"type":"VEC3"
		},
		{
			"bufferView":21,
			"componentType":5126,
			"count":2768,
			"type":"VEC3"
		},
		{
			"bufferView":22,
			"componentType":5126,
			"count":2768,
			"type":"VEC2"
		},
		{
			"bufferView":23,
			"componentType":5123,
			"count":5352,
			"type":"SCALAR"
		},
		{
			"bufferView":24,
			"componentType":5126,
			"count":838,
			"max":[
				0.0009544491767883301,
				0.04208230972290039,
				0.22900378704071045
			],
			"min":[
				-0.000957787036895752,
				-0.11659686267375946,
				-0.10495424270629883
			],
			"type":"VEC3"
		},
		{
			"bufferView":25,
			"componentType":5126,
			"count":838,
			"type":"VEC3"
		},
		{
			"bufferView":26,
			"componentType":5126,
			"count":838,
			"type":"VEC2"
		},
		{
			"bufferView":27,
			"componentType":5123,
			"count":1488,
			"type":"SCALAR"
		},
		{
			"bufferView":28,
			"componentType":5126,
			"count":84,
			"max":[
				0.00022733211517333984,
				0.03112761676311493,
				0.037253379821777344
			],
			"min":[
				-0.0002276301383972168,
				-0.03040798008441925,
				-0.032213807106018066
			],
			"type":"VEC3"
		},
		{
			"bufferView":29,
			"componentType":5126,
			"count":84,
			"type":"VEC3"
		},
		{
			"bufferView":30,
			"componentType":5126,
			"count":84,
			"type":"VEC2"
		},
		{
			"bufferView":31,
			"componentType":5123,
			"count":144,
			"type":"SCALAR"
		}
	],
	"bufferViews":[
		{
			"buffer":0,
			"byteLength":39984,
			"byteOffset":0,
			"target":34962
		},
		{
			"buffer":0,
			"byteLength":39984,
			"byteOffset":39984,
			"target":34962
		},
		{
			"buffer":0,
			"byteLength":26656,
			"byteOffset":79968,
			"target":34962
		},
		{
			"buffer":0,
			"byteLength":17136,
			"byteOffset":106624,
			"target":34963
		},
		{
			"buffer":0,
			"byteLength":280008,
			"byteOffset":123760,
			"target":34962
		},
		{
			"buffer":0,
			"byteLength":280008,
			"byteOffset":403768,
			"target":34962
		},
		{
			"buffer":0,
			"byteLength":186672,
			"byteOffset":683776,
			"target":34962
		},
		{
			"buffer":0,
			"byteLength":46668,
			"byteOffset":870448,
			"target":34963
		},
		{
			"buffer":0,
			"byteLength":114912,
			"byteOffset":917116,
			"target":34962
		},
		{
			"buffer":0,
			"byteLength":114912,
			"byteOffset":1032028,
			"target":34962
		},
		{
			"buffer":0,
			"byteLength":76608,
			"byteOffset":1146940,
			"target":34962
		},
		{
			"buffer":0,
			"byteLength":19152,
			"byteOffset":1223548,
			"target":34963
		},
		{
			"buffer":0,
			"byteLength":61152,
			"byteOffset":1242700,
			"target":34962
		},
		{
			"buffer":0,
			"byteLength":61152,
			"byteOffset":1303852,
			"target":34962
		},
		{
			"buffer":0,
			"byteLength":40768,
			"byteOffset":1365004,
			"target":34962
		},
		{
			"buffer":0,
			"byteLength":19608,
			"byteOffset":1405772,
			"target":34963
		},
		{
			"buffer":0,
			"byteLength":1044,
			"byteOffset":1425380,
			"target":34962
		},
		{
			"buffer":0,
			"byteLength":1044,
			"byteOffset":1426424,
			"target":34962
		},
		{
			"buffer":0,
			"byteLength":696,
			"byteOffset":1427468,
			"target":34962
		},
		{
			"buffer":0,
			"byteLength":288,
			"byteOffset":1428164,
			"target":34963
		},
		{
			"buffer":0,
			"byteLength":33216,
			"byteOffset":1428452,
			"target":34962
		},
		{
			"buffer":0,
			"byteLength":33216,
			"byteOffset":1461668,
			"target":34962
		},
		{
			"buffer":0,
			"byteLength":22144,
			"byteOffset":1494884,
			"target":34962
		},
		{
			"buffer":0,
			"byteLength":10704,
			"byteOffset":1517028,
			"target":34963
		},
		{
			"buffer":0,
			"byteLength":10056,
			"byteOffset":1527732,
			"target":34962
		},
		{
			"buffer":0,
			"byteLength":10056,
			"byteOffset":1537788,
			"target":34962
		},
		{
			"buffer":0,
			"byteLength":6704,
			"byteOffset":1547844,
			"target":34962
		},
		{
			"buffer":0,
			"byteLength":2976,
			"byteOffset":1554548,
			"target":34963
		},
		{
			"buffer":0,
			"byteLength":1008,
			"byteOffset":1557524,
			"target":34962
		},
		{
			"buffer":0,
			"byteLength":1008,
			"byteOffset":1558532,
			"target":34962
		},
		{
			"buffer":0,
			"byteLength":672,
			"byteOffset":1559540,
			"target":34962
		},
		{
			"buffer":0,
			"byteLength":288,
			"byteOffset":1560212,
			"target":34963
		}
	],
	"buffers":[
		{
			"byteLength":1560500,
			"uri":"aircond.bin"
		}
	]
}
